<?xml version="1.0" encoding="UTF-8"?> <svg xmlns="http://www.w3.org/2000/svg" width="45" height="44" viewBox="0 0 45 44" fill="none"> <path fill-rule="evenodd" clip-rule="evenodd" d="M3.2651 0.155991C1.78623 0.619265 0.623909 1.76131 0.182161 3.18506C-9.38535e-05 3.77241 -0.00347238 4.0465 0.0211161 16.3022L0.0462676 28.8194L0.263247 29.3444C0.737185 30.4906 1.80828 31.5372 2.9814 32.0003L3.51869 32.2123H22.5231H41.5276L42.0649 32.0003C43.238 31.5372 44.3091 30.4906 44.783 29.3444L45 28.8194V16.1188V3.41816L44.783 2.89318C44.3091 1.74691 43.238 0.700329 42.0649 0.237238L41.5276 0.0252254L22.6639 0.00679343C4.61953 -0.0109049 3.77696 -0.00439402 3.2651 0.155991ZM40.6413 3.01514C41.3062 3.15452 41.7974 3.63449 41.94 4.28419C42.086 4.94948 42.086 27.288 41.94 27.9533C41.7974 28.603 41.3062 29.083 40.6413 29.2224C39.9566 29.3658 5.08963 29.3658 4.405 29.2224C3.74008 29.083 3.24887 28.603 3.10622 27.9533C2.96028 27.288 2.96028 4.94948 3.10622 4.28419C3.24052 3.67245 3.74862 3.14966 4.33301 3.02202C4.93768 2.88997 40.0122 2.88336 40.6413 3.01514ZM17.1964 7.4984C17.0281 7.59863 16.8066 7.81505 16.704 7.97947C16.5218 8.27154 16.5174 8.45668 16.5174 16.1188C16.5174 23.7808 16.5218 23.966 16.704 24.2581C16.9853 24.7089 17.4101 24.9213 18.031 24.9217L18.56 24.9221L24.8268 21.0935C28.2736 18.9878 31.1741 17.1587 31.2724 17.0287C31.6536 16.5249 31.6536 15.7126 31.2724 15.2088C31.1741 15.0789 28.2736 13.2497 24.8268 11.144L18.56 7.31546L18.031 7.31583C17.669 7.31601 17.4057 7.3736 17.1964 7.4984ZM23.3492 13.8262C25.37 15.0619 27.0234 16.0935 27.0234 16.1188C27.0236 16.1592 19.7877 20.6107 19.5955 20.6885C19.5539 20.7054 19.52 18.649 19.52 16.1188C19.52 13.5885 19.5549 11.5322 19.5975 11.549C19.6402 11.5658 21.3284 12.5906 23.3492 13.8262ZM29.7137 33.8273C28.2182 34.1704 26.7244 35.4409 26.168 36.843L25.9496 37.3934L13.4672 37.3938C1.17724 37.3941 0.980066 37.3969 0.678904 37.5764C0.220921 37.8492 0 38.267 0 38.8606C0 39.4542 0.220921 39.8721 0.678904 40.1449C0.980066 40.3244 1.17724 40.3272 13.4902 40.3275C23.4316 40.3278 25.9956 40.3513 25.9958 40.4425C25.9964 40.6579 26.6248 41.777 26.9893 42.2117C28.4915 44.0029 31.383 44.5333 33.5498 43.4151C34.3675 42.993 35.2748 42.0791 35.6933 41.2555C35.8826 40.883 36.0374 40.522 36.0374 40.4531C36.0374 40.3498 36.5846 40.3278 39.1675 40.3278C42.2589 40.3278 42.3014 40.3253 42.6078 40.1215C43.1408 39.7671 43.3076 39.4665 43.3076 38.8606C43.3076 38.2548 43.1408 37.9542 42.6078 37.5997C42.3015 37.3961 42.2582 37.3934 39.1895 37.3934H36.0814L35.9216 36.9535C35.3987 35.515 33.9782 34.2623 32.4203 33.8658C31.8156 33.7119 30.3103 33.6905 29.7137 33.8273ZM31.8407 36.8751C32.3303 37.0757 32.7642 37.4914 32.9998 37.9857C33.3742 38.7715 33.257 39.5819 32.6724 40.2493C31.9957 41.0218 30.8757 41.2047 29.9608 40.692C28.8059 40.0449 28.5023 38.6407 29.2881 37.5808C29.816 36.8687 31.0153 36.5372 31.8407 36.8751Z" fill="#8C87EF"></path> </svg> 