<?xml version="1.0" encoding="UTF-8"?> <svg xmlns="http://www.w3.org/2000/svg" width="45" height="45" viewBox="0 0 45 45" fill="none"> <circle cx="22.5" cy="22.5" r="22.5" fill="#222061"></circle> <path fill-rule="evenodd" clip-rule="evenodd" d="M15.5167 14.037C15.3279 14.1376 13.1269 16.0741 13.0625 16.1961C13.0082 16.2993 12.9989 17.1864 13.0001 22.1773L13.0015 28.0374L13.095 28.1869C13.2604 28.451 13.4165 28.4945 14.3205 28.5282C16.5859 28.6126 18.4884 28.9774 20.2713 29.6695C20.9365 29.9277 21.8091 30.3569 22.1982 30.6172C22.6272 30.9043 22.8425 30.9962 23.0941 30.9998C23.2997 31.0028 23.3721 30.9736 23.8105 30.7111C25.9095 29.4543 28.5356 28.7572 31.5767 28.6495C32.6122 28.6129 32.7171 28.5823 32.8993 28.2648L32.9992 28.0906L33 22.2691C33.0006 17.3803 32.9907 16.424 32.9381 16.2998C32.8669 16.1315 30.744 14.1963 30.5107 14.087C30.3199 13.9976 29.4034 13.9991 28.7435 14.09C27.7698 14.2241 26.9284 14.4803 25.9984 14.9257C25.021 15.3939 24.2406 15.9552 23.4591 16.7521L23.0226 17.1971L22.609 16.7745C22.3814 16.5421 22.0422 16.2258 21.8552 16.0716C20.5425 14.9894 18.7958 14.2516 17.1169 14.0702C16.3959 13.9922 15.6304 13.9764 15.5167 14.037ZM17.6436 15.6099C19.1915 15.9353 20.6933 16.7991 21.7163 17.9525C21.8995 18.159 22.1073 18.411 22.1782 18.5126L22.3071 18.6972V23.3498V28.0023L21.938 27.6486C20.742 26.5027 19.3495 25.7573 17.739 25.4009C17.4584 25.3388 17.0828 25.2747 16.9044 25.2583L16.58 25.2286V20.3472V15.4657L16.9044 15.4942C17.0828 15.5099 17.4155 15.5619 17.6436 15.6099ZM29.466 20.3536V25.2286L29.1489 25.2577C28.3826 25.328 27.2868 25.6387 26.4906 26.0113C25.5995 26.4283 24.8292 26.9577 24.108 27.6486L23.7389 28.0023V23.3577V18.7132L23.9432 18.4392C24.5645 17.6058 25.6161 16.7389 26.5903 16.2569C27.4393 15.8369 28.6207 15.4963 29.2758 15.4826L29.466 15.4787V20.3536ZM15.324 26.4087C15.5206 26.6089 15.6392 26.6417 16.2727 26.6711C17.1989 26.7141 18.1273 26.9512 18.9738 27.3609C19.4144 27.5741 20.0017 27.9297 19.9681 27.963C19.9586 27.9723 19.7813 27.9296 19.5742 27.8681C18.1575 27.4475 16.4934 27.1646 15.1147 27.11L14.4324 27.083V22.0147V16.9466L14.7791 16.6468L15.1259 16.347L15.1483 21.2997L15.1706 26.2524L15.324 26.4087ZM31.3116 16.686L31.6137 16.9493V22.0161V27.0828L30.909 27.1123C29.5466 27.1695 28.0013 27.4292 26.5602 27.8433C26.3031 27.9172 26.0856 27.9705 26.0768 27.9618C26.0441 27.9296 26.6388 27.5707 27.0723 27.3609C27.9187 26.9512 28.8471 26.7141 29.7733 26.6711C30.4068 26.6417 30.5254 26.6089 30.722 26.4087L30.8754 26.2524L30.8872 21.305C30.8965 17.3888 30.9104 16.3644 30.9543 16.3901C30.9847 16.408 31.1456 16.5411 31.3116 16.686Z" fill="#6662C8"></path> </svg> 