<?xml version="1.0" encoding="UTF-8"?> <svg xmlns="http://www.w3.org/2000/svg" width="45" height="45" viewBox="0 0 45 45" fill="none"> <circle cx="22.5" cy="22.5" r="22.5" fill="#222061"></circle> <path fill-rule="evenodd" clip-rule="evenodd" d="M16.8052 12.025C15.3047 12.2224 14.0578 12.8226 12.988 13.8625C12.2187 14.6103 11.6682 15.479 11.3226 16.4904C11.04 17.3175 10.9986 17.6039 11 18.7255C11.0012 19.5974 11.0142 19.7841 11.0994 20.1428C11.3975 21.3989 11.9739 22.5006 12.7734 23.3426C13.0125 23.5944 13.0337 23.6316 12.9689 23.6855C12.8254 23.8048 12.5486 24.2926 12.4609 24.5805C12.3485 24.9492 12.3402 25.6067 12.4433 25.9627C12.6722 26.7528 13.3027 27.3944 14.0391 27.5868L14.3521 27.6685V27.877C14.3521 28.4211 14.6109 29.0071 15.0488 29.4546C15.4637 29.8786 16.0368 30.1563 16.5006 30.158C16.6227 30.1585 16.6501 30.1786 16.672 30.2841C16.7586 30.7029 16.8007 30.8362 16.9259 31.088C17.0074 31.2518 17.1797 31.4817 17.3411 31.6419C17.8506 32.1478 18.4593 32.3789 19.1684 32.3357L19.551 32.3124L19.7219 32.6752C20.195 33.6801 21.3441 34.2093 22.4302 33.9224C22.8915 33.8006 23.1188 33.6417 23.7643 32.9902C24.2718 32.4778 24.4041 32.3154 24.5381 32.0405C24.6269 31.858 24.7121 31.6116 24.7273 31.4928C24.781 31.0727 24.7649 31.0928 25.0969 31.0308C25.4259 30.9693 25.8875 30.7461 26.1646 30.5145C26.5642 30.1805 26.8825 29.5913 26.9472 29.0656L26.9784 28.8125L27.228 28.7809C27.7467 28.7152 28.3245 28.3942 28.6596 27.9857C28.8781 27.7194 29.1149 27.2015 29.1715 26.8663L29.2218 26.5688L29.504 26.5197C30.0703 26.4214 30.6402 26.0633 30.984 25.5898C31.2222 25.2617 31.3527 24.9236 31.4205 24.4592L31.4712 24.1111L31.9961 23.5635C32.9068 22.6132 33.343 21.9195 33.6848 20.8775C33.955 20.0539 34 19.7437 34 18.7027C34 17.6617 33.955 17.3515 33.6848 16.5279C33.1337 14.8478 31.8261 13.3641 30.2381 12.6166C29.3688 12.2074 28.687 12.0455 27.6758 12.008C25.8039 11.9386 24.1246 12.5764 22.8032 13.8588L22.4993 14.1536L22.1955 13.8588C21.1981 12.891 19.9466 12.2717 18.569 12.0642C18.1439 12.0003 17.1596 11.9783 16.8052 12.025ZM28.5885 13.6532C29.7059 13.9469 30.7856 14.6883 31.5044 15.6556C31.8557 16.1284 32.2348 16.9167 32.3879 17.4932C32.4958 17.8996 32.5093 18.0322 32.511 18.7027C32.5128 19.3892 32.5019 19.4961 32.3881 19.9122C32.1577 20.7542 31.6683 21.6475 31.0942 22.274L30.8327 22.5594L28.095 19.7867C26.5893 18.2617 25.3399 17.014 25.3185 17.014C25.2972 17.014 25.1094 17.1775 24.9012 17.3773C24.4077 17.851 24.0716 18.0201 23.5619 18.0515C22.9561 18.0887 22.521 17.8949 22.0042 17.3579L21.7566 17.1007L22.9044 15.9506C24.0663 14.7863 24.4708 14.447 25.11 14.1006C25.5261 13.875 26.1408 13.6584 26.618 13.5691C27.1555 13.4685 28.0275 13.5058 28.5885 13.6532ZM18.8658 13.6966C19.6696 13.9119 20.4592 14.3531 21.0967 14.9431L21.4265 15.2484L20.5226 16.1658C20.0253 16.6704 19.6185 17.106 19.6185 17.1337C19.6185 17.219 21.2549 18.8162 21.5516 19.0205C22.1577 19.4378 22.6565 19.5875 23.4446 19.5884C24.0832 19.5891 24.4025 19.5215 24.913 19.277L25.2336 19.1235L27.53 21.4576C29.9783 23.9461 29.9713 23.9378 29.9053 24.3081C29.812 24.8316 29.2572 25.1441 28.7884 24.9372C28.7076 24.9016 27.8966 24.1139 26.9558 23.1573C26.0275 22.2134 25.248 21.4412 25.2235 21.4412C25.1644 21.4412 24.1648 22.4533 24.1648 22.5132C24.1648 22.5388 24.9264 23.3299 25.8572 24.2711C26.8007 25.2251 27.5776 26.0474 27.6127 26.1293C27.8167 26.6047 27.5086 27.1672 26.9922 27.2618C26.6344 27.3274 26.5972 27.297 24.7384 25.4187L22.9939 23.6557L22.4433 24.2141L21.8926 24.7724L23.6313 26.5412C24.9977 27.9315 25.3816 28.3474 25.4245 28.4842C25.5769 28.9705 25.1739 29.5196 24.6646 29.5196C24.418 29.5196 24.2893 29.4618 23.9954 29.219C23.4691 28.7843 23.013 28.633 22.3075 28.659L21.8688 28.6752L21.7979 28.4585C21.5741 27.7751 20.7864 27.1372 20.0011 27.0034C19.6424 26.9423 19.6501 26.9495 19.5966 26.6214C19.5803 26.521 19.4971 26.2906 19.4117 26.1095C19.1266 25.5044 18.5177 25.0069 17.8743 24.8534L17.638 24.797L17.6374 24.5453C17.6354 23.5758 16.8743 22.6348 15.8825 22.3756C15.4572 22.2645 14.8712 22.2995 14.4877 22.4589L14.1957 22.5803L13.9757 22.3644C13.3041 21.7054 12.7918 20.7227 12.5698 19.6674C12.4691 19.1886 12.4683 18.2496 12.5682 17.73C12.9116 15.9439 14.1578 14.4623 15.8375 13.8429C16.4912 13.6018 16.8655 13.545 17.683 13.5626C18.3042 13.5761 18.4977 13.598 18.8658 13.6966ZM15.6484 23.9245C15.9356 24.0766 16.1076 24.3629 16.1076 24.6891C16.1076 24.9698 16.0055 25.1341 15.5491 25.5879C14.9879 26.146 14.7623 26.2358 14.3727 26.0564C13.9934 25.8816 13.799 25.488 13.9041 25.1073C13.951 24.9375 14.0444 24.8045 14.327 24.5046C14.7955 24.0075 15.0199 23.8601 15.3084 23.8601C15.4285 23.8601 15.5815 23.8891 15.6484 23.9245ZM17.7498 26.4676C18.0621 26.6846 18.1973 27.0598 18.0869 27.4034C18.019 27.6148 17.2965 28.3877 17.0434 28.5197C16.4193 28.8451 15.7065 28.213 15.9286 27.531C15.9998 27.3121 16.7156 26.5516 16.978 26.4161C17.2092 26.2966 17.5351 26.3184 17.7498 26.4676ZM19.9222 28.5857C20.136 28.6763 20.2382 28.7723 20.3435 28.9815C20.4477 29.1885 20.4531 29.4747 20.3566 29.6702C20.2565 29.8728 19.5419 30.6028 19.339 30.7096C19.1375 30.8157 18.908 30.8219 18.6847 30.7273C18.4615 30.6328 18.3611 30.5355 18.2628 30.3183C18.0791 29.9126 18.1732 29.6529 18.7028 29.104C19.2506 28.5364 19.5278 28.4186 19.9222 28.5857ZM22.6442 30.2062C22.8681 30.2693 23.0791 30.4565 23.1799 30.6816C23.3613 31.0863 23.2537 31.349 22.6706 31.9252C22.2119 32.3784 22.1064 32.4406 21.7964 32.4406C21.1772 32.4406 20.8054 31.7391 21.142 31.2058C21.3263 30.9138 21.9961 30.2795 22.1843 30.2187C22.3918 30.1517 22.4455 30.1502 22.6442 30.2062Z" fill="#6662C8"></path> </svg> 