<?xml version="1.0" encoding="UTF-8"?> <svg xmlns="http://www.w3.org/2000/svg" width="45" height="45" viewBox="0 0 45 45" fill="none"> <circle cx="22.5" cy="22.5" r="22.5" fill="#222061"></circle> <path fill-rule="evenodd" clip-rule="evenodd" d="M18.5065 11.0526C17.2033 11.2505 15.9754 11.7281 14.8797 12.4632C12.7988 13.8593 11.4318 16.0384 11.0643 18.545C10.9499 19.3255 10.9933 20.7934 11.1529 21.5442C11.3143 22.3028 11.5378 22.9533 11.8793 23.6578C12.0382 23.9858 12.1683 24.2723 12.1683 24.2946C12.1683 24.3169 11.906 25.2823 11.5855 26.44C11.2649 27.5978 11.0079 28.5503 11.0144 28.5568C11.0209 28.5633 11.9747 28.3061 13.1339 27.9855C14.2932 27.6647 15.258 27.4023 15.278 27.4023C15.298 27.4023 15.5825 27.5323 15.9102 27.6912C16.5363 27.9947 17.1157 28.2052 17.7251 28.3505C18.147 28.4511 18.9416 28.5698 19.2033 28.5713L19.3831 28.5723L19.501 28.9432C20.0775 30.7565 21.569 32.449 23.3329 33.2917C23.8774 33.5518 24.4801 33.7571 25.0919 33.8907C25.4803 33.9756 25.6821 33.9891 26.5753 33.9899C27.4815 33.9908 27.6657 33.9785 28.0661 33.8903C28.7353 33.7431 29.2958 33.5499 29.8769 33.2663L30.3915 33.0152L32.1899 33.5133C33.179 33.7873 33.9935 34.0062 33.9999 33.9999C34.0062 33.9935 33.7874 33.1784 33.5137 32.1886L33.0159 30.389L33.2666 29.8741C33.5581 29.2751 33.7434 28.7388 33.8875 28.0771C33.9781 27.6614 33.9904 27.4806 33.9904 26.5702C33.9904 25.6644 33.9778 25.4781 33.8894 25.0745C33.5583 23.5634 32.9193 22.3893 31.8369 21.3036C30.9759 20.4398 30.0182 19.8356 28.9759 19.4984L28.588 19.3729L28.557 18.9693C28.2968 15.5845 25.8462 12.4888 22.5746 11.4125C21.6251 11.1001 21.1283 11.0223 19.9674 11.004C19.2213 10.9922 18.8147 11.0058 18.5065 11.0526ZM21.2638 12.5108C22.7431 12.8176 24.025 13.528 25.0947 14.6336C26.1022 15.6749 26.6931 16.7645 27.0309 18.2033C27.1505 18.7131 27.1575 18.8007 27.1575 19.7777C27.1575 20.7548 27.1505 20.8423 27.0309 21.3521C26.6931 22.791 26.1022 23.8806 25.0947 24.9219C23.5411 26.5276 21.4988 27.3126 19.25 27.1683C18.0942 27.0942 16.8728 26.6977 15.8655 26.0697L15.5396 25.8665L14.2986 26.2097C13.616 26.3984 13.0485 26.5438 13.0375 26.5327C13.0264 26.5217 13.1719 25.9542 13.3607 25.2715L13.7041 24.0303L13.5005 23.7033C13.067 23.0071 12.7114 22.1207 12.5167 21.2513C12.431 20.8685 12.4186 20.68 12.4193 19.7777C12.4203 18.639 12.4688 18.3026 12.7552 17.4458C13.1163 16.3655 13.6561 15.4857 14.4806 14.6336C15.5494 13.5288 16.8302 12.819 18.3151 12.5083C19.1769 12.328 20.3875 12.329 21.2638 12.5108ZM19.0863 15.095C17.9971 15.4071 17.1975 16.3453 17.0851 17.4435L17.0556 17.731H17.7586C18.4082 17.731 18.4616 17.7248 18.4616 17.6492C18.4616 17.4185 18.6102 17.0934 18.8213 16.8623C19.3711 16.2602 20.2041 16.2602 20.754 16.8623C21.0888 17.2289 21.1885 17.6481 21.05 18.1082C20.9588 18.4118 20.8484 18.5378 19.9216 19.3974L19.0909 20.1678V20.9961V21.8245H19.7876H20.4844V21.3127V20.801L21.0126 20.3169C21.943 19.4642 22.126 19.2338 22.3519 18.6307C22.4635 18.3326 22.4786 18.2305 22.4814 17.7535C22.484 17.3374 22.4654 17.157 22.4005 16.9663C22.101 16.0862 21.5068 15.4603 20.6836 15.1579C20.3525 15.0363 19.4195 14.9995 19.0863 15.095ZM29.2357 21.1299C30.7028 21.8393 31.9006 23.2417 32.3683 24.7978C32.5542 25.4167 32.6213 25.8798 32.6213 26.5447C32.6213 27.776 32.3175 28.8342 31.6692 29.8616L31.4922 30.142L31.7454 31.048C31.8846 31.5464 31.9889 31.9638 31.977 31.9756C31.9652 31.9875 31.5481 31.8831 31.0501 31.7438L30.1447 31.4904L29.8645 31.6675C28.8371 32.3169 27.763 32.6277 26.5538 32.6257C25.0043 32.6232 23.5585 32.0446 22.4176 30.9706C21.9182 30.5004 21.4321 29.8397 21.1389 29.2323C20.7929 28.5158 20.7956 28.5392 21.0554 28.5029C22.2615 28.3345 23.5788 27.8324 24.6237 27.1429C26.7419 25.7451 28.1226 23.5713 28.5099 21.0243C28.5454 20.7907 28.5293 20.7884 29.2357 21.1299ZM19.0909 23.8487V24.5234H19.7876H20.4844V23.8487V23.1739H19.7876H19.0909V23.8487Z" fill="#6662C8"></path> </svg> 